<svg xmlns="http://www.w3.org/2000/svg" width="1200" height="630" viewBox="0 0 1200 630">
<rect width="1200" height="630" fill="#050807"/>
<g stroke="#0f1f19" stroke-width="1"><line x1="0" y1="0" x2="0" y2="630"/><line x1="60" y1="0" x2="60" y2="630"/><line x1="120" y1="0" x2="120" y2="630"/><line x1="180" y1="0" x2="180" y2="630"/><line x1="240" y1="0" x2="240" y2="630"/><line x1="300" y1="0" x2="300" y2="630"/><line x1="360" y1="0" x2="360" y2="630"/><line x1="420" y1="0" x2="420" y2="630"/><line x1="480" y1="0" x2="480" y2="630"/><line x1="540" y1="0" x2="540" y2="630"/><line x1="600" y1="0" x2="600" y2="630"/><line x1="660" y1="0" x2="660" y2="630"/><line x1="720" y1="0" x2="720" y2="630"/><line x1="780" y1="0" x2="780" y2="630"/><line x1="840" y1="0" x2="840" y2="630"/><line x1="900" y1="0" x2="900" y2="630"/><line x1="960" y1="0" x2="960" y2="630"/><line x1="1020" y1="0" x2="1020" y2="630"/><line x1="1080" y1="0" x2="1080" y2="630"/><line x1="1140" y1="0" x2="1140" y2="630"/><line x1="1200" y1="0" x2="1200" y2="630"/><line x1="0" y1="0" x2="1200" y2="0"/><line x1="0" y1="60" x2="1200" y2="60"/><line x1="0" y1="120" x2="1200" y2="120"/><line x1="0" y1="180" x2="1200" y2="180"/><line x1="0" y1="240" x2="1200" y2="240"/><line x1="0" y1="300" x2="1200" y2="300"/><line x1="0" y1="360" x2="1200" y2="360"/><line x1="0" y1="420" x2="1200" y2="420"/><line x1="0" y1="480" x2="1200" y2="480"/><line x1="0" y1="540" x2="1200" y2="540"/><line x1="0" y1="600" x2="1200" y2="600"/></g>
<defs><filter id="g" x="-20%" y="-20%" width="140%" height="140%"><feGaussianBlur stdDeviation="6" result="b"/><feMerge><feMergeNode in="b"/><feMergeNode in="SourceGraphic"/></feMerge></filter></defs>
<polyline points="0,430.0 6,438.6 12,447.0 18,455.3 24,463.2 30,470.8 36,477.8 42,484.3 48,490.1 54,495.2 60,499.5 66,503.0 72,505.5 78,507.2 84,508.0 90,507.8 96,506.6 102,504.6 108,501.6 114,497.8 120,493.1 126,487.7 132,481.6 138,474.9 144,467.6 150,459.8 156,451.8 162,443.4 168,434.9 174,426.3 180,417.8 186,409.4 192,401.3 198,393.5 204,386.2 210,379.3 216,373.1 222,367.6 228,362.9 234,358.9 240,355.8 246,353.6 252,352.3 258,352.0 264,352.6 270,354.2 276,356.6 282,360.0 288,364.1 294,369.1 300,374.8 306,381.2 312,388.2 318,395.7 324,403.6 330,411.8 336,420.2 342,428.8 348,437.3 354,445.8 360,454.1 366,462.1 372,469.7 378,476.8 384,483.4 390,489.3 396,494.5 402,498.9 408,502.5 414,505.2 420,507.0 426,507.9 432,507.8 438,506.8 444,504.9 450,502.1 456,498.4 462,493.8 468,488.5 474,482.5 480,475.8 486,468.6 492,461.0 498,452.9 504,444.6 510,436.1 516,427.5 522,419.0 528,410.6 534,402.4 540,394.6 546,387.2 552,380.3 558,374.0 564,368.4 570,363.5 576,359.4 582,356.2 588,353.9 594,352.5 600,352.0 606,352.5 612,353.9 618,356.2 624,359.4 630,363.5 636,368.4 642,374.0 648,380.3 654,387.2 660,394.6 666,402.4 672,410.6 678,419.0 684,427.5 690,436.1 696,444.6 702,452.9 708,461.0 714,468.6 720,475.8 726,482.5 732,488.5 738,493.8 744,498.4 750,502.1 756,504.9 762,506.8 768,507.8 774,507.9 780,507.0 786,505.2 792,502.5 798,498.9 804,494.5 810,489.3 816,483.4 822,476.8 828,469.7 834,462.1 840,454.1 846,445.8 852,437.3 858,428.8 864,420.2 870,411.8 876,403.6 882,395.7 888,388.2 894,381.2 900,374.8 906,369.1 912,364.1 918,360.0 924,356.6 930,354.2 936,352.6 942,352.0 948,352.3 954,353.6 960,355.8 966,358.9 972,362.9 978,367.6 984,373.1 990,379.3 996,386.2 1002,393.5 1008,401.3 1014,409.4 1020,417.8 1026,426.3 1032,434.9 1038,443.4 1044,451.8 1050,459.8 1056,467.6 1062,474.9 1068,481.6 1074,487.7 1080,493.1 1086,497.8 1092,501.6 1098,504.6 1104,506.6 1110,507.8 1116,508.0 1122,507.2 1128,505.5 1134,503.0 1140,499.5 1146,495.2 1152,490.1 1158,484.3 1164,477.8 1170,470.8 1176,463.2 1182,455.3 1188,447.0 1194,438.6 1200,430.0" fill="none" stroke="#6ee7b7" stroke-width="4" stroke-linecap="round" filter="url(#g)"/>
<text x="80" y="250" font-family="Menlo, monospace" font-size="122" font-weight="700" fill="#6ee7b7">rondocode</text>
<text x="84" y="318" font-family="Menlo, monospace" font-size="36" fill="#8fb3a6">live-codeable synths + patterns, in your browser</text>
<text x="82" y="582" font-family="Menlo, monospace" font-size="28" fill="#3c5249">rondocode.com</text>
</svg>